<svg id="svg4" xmlns="http://www.w3.org/2000/svg" viewBox="0 0 62.41 62.94"><defs><style>.cls-1,.cls-2{isolation:isolate;}.cls-2{font-size:17.69px;font-family:Bauhaus93, "Bauhaus 93";}.cls-2,.cls-3{fill:#1f3c76;stroke:#fff;}</style></defs><title>logo</title><g id="text819" class="cls-1"><text class="cls-2" transform="translate(0.5 58.02) scale(1.16 1)">DATEK</text></g><g id="g859"><path id="path855" class="cls-3" d="M45.86,15.78c-.82-.31-1.7-.6-2.62-.86a26,26,0,0,0,.56-2.7c.72-4.52-.07-7.69-2.22-8.93a4.19,4.19,0,0,0-2.13-.54c-2.49,0-5.64,1.85-8.82,5a25.33,25.33,0,0,0-2.09-1.87C25,3,21.84,2.07,19.69,3.31c-1.37.8-2.21,2.42-2.42,4.7a.7.7,0,1,0,1.39.13c.11-1.27.5-2.92,1.73-3.62,1.59-.92,4.24,0,7.28,2.42a26.57,26.57,0,0,1,2,1.78,44.66,44.66,0,0,0-3.94,4.86,45.54,45.54,0,0,0-6.33,1,24.78,24.78,0,0,1-.7-3.78.69.69,0,1,0-1.38.13,26.35,26.35,0,0,0,.73,4c-.89.26-1.74.53-2.53.84-4.28,1.65-6.63,3.91-6.63,6.39s2.35,4.75,6.63,6.39c.82.32,1.7.6,2.62.86q-.36,1.39-.57,2.7c-.71,4.52.08,7.69,2.22,8.93a4.2,4.2,0,0,0,2.13.55c2.47,0,5.57-1.82,8.72-4.88.67.66,1.35,1.26,2,1.81,2.52,2,4.83,3.09,6.72,3.09a4.12,4.12,0,0,0,2.13-.55c2.14-1.23,2.93-4.41,2.22-8.93q-.21-1.3-.57-2.7a26.36,26.36,0,0,0,3.92-1.39.69.69,0,1,0-.58-1.26,24.67,24.67,0,0,1-3.71,1.31,44.41,44.41,0,0,0-2.22-5.82,46,46,0,0,0,2.31-6C48,17.7,51.09,20,51.09,22.17c0,1.42-1.23,2.58-2.26,3.31a.7.7,0,1,0,.8,1.14c1.87-1.32,2.86-2.86,2.86-4.45C52.49,19.69,50.13,17.43,45.86,15.78ZM39.45,4.14a2.9,2.9,0,0,1,1.44.35C42.48,5.41,43,8.15,42.43,12c-.13.82-.31,1.68-.54,2.56a46,46,0,0,0-6.36-1A43.82,43.82,0,0,0,31.6,8.72l.74-.7C35.06,5.52,37.58,4.14,39.45,4.14ZM30.63,9.72a42.06,42.06,0,0,1,3.09,3.72c-1,0-2-.08-3-.08s-2.11,0-3.14.08A42.06,42.06,0,0,1,30.63,9.72Zm0,25a42.15,42.15,0,0,1-3.2-3.85c1.07.06,2.15.1,3.25.1s2.11,0,3.15-.09A45.18,45.18,0,0,1,30.63,34.74Zm.05-5.15c-1.49,0-2.93-.05-4.29-.16-.77-1.12-1.51-2.3-2.22-3.53s-1.34-2.42-1.92-3.63c.6-1.27,1.27-2.54,2-3.81S25.72,16,26.5,14.91c1.33-.11,2.73-.16,4.18-.16s2.78.05,4.08.15C35.55,16,36.3,17.23,37,18.48s1.4,2.53,2,3.79c-.58,1.2-1.22,2.41-1.91,3.61s-1.46,2.42-2.24,3.55C33.51,29.54,32.1,29.59,30.68,29.59Zm-6.08-.34a40.21,40.21,0,0,1-4.76-.81,40.57,40.57,0,0,1,1.67-4.53c.45.9.94,1.8,1.45,2.69S24,28.4,24.6,29.25Zm.11-14.18c-.57.87-1.13,1.77-1.66,2.69S22,19.68,21.5,20.63a42.58,42.58,0,0,1-1.74-4.71A44.92,44.92,0,0,1,24.71,15.07Zm-14.44,7.1c0-2.18,3-4.45,8.14-5.9a46.4,46.4,0,0,0,2.3,6,44.31,44.31,0,0,0-2.21,5.82C13.33,26.64,10.27,24.36,10.27,22.17Zm11.64,18a2.88,2.88,0,0,1-1.43-.35c-1.59-.92-2.15-3.66-1.54-7.52.13-.82.31-1.68.53-2.56a44.79,44.79,0,0,0,6.14,1,45.48,45.48,0,0,0,4,5l-.63.6C26.31,38.83,23.78,40.2,21.91,40.2Zm20.43-7.84c.61,3.85,0,6.59-1.54,7.51s-4.24,0-7.28-2.42c-.64-.52-1.28-1.09-1.92-1.72a43.71,43.71,0,0,0,4-5,44.6,44.6,0,0,0,6.16-1Q42.15,31.12,42.34,32.36Zm-.91-3.91a46.2,46.2,0,0,1-4.76.81c.56-.86,1.11-1.76,1.65-2.68s1-1.78,1.44-2.67A41.45,41.45,0,0,1,41.43,28.45Zm-1.66-7.81c-.48-.95-1-1.91-1.54-2.85s-1.1-1.85-1.68-2.73a41,41,0,0,1,5,.85A43.74,43.74,0,0,1,39.77,20.64Z" transform="translate(-0.63 -2.25)"/><path id="path857" class="cls-3" d="M30.68,18.69a3.48,3.48,0,1,0,3.48,3.48A3.48,3.48,0,0,0,30.68,18.69Zm0,5.57a2.09,2.09,0,1,1,2.09-2.09A2.09,2.09,0,0,1,30.68,24.26Z" transform="translate(-0.63 -2.25)"/></g></svg>